<svg width="51.65599999999999" height="50.13" xmlns="http://www.w3.org/2000/svg">
 <g>
  <title>Layer 1</title>
  <g id="Logo">
   <g id="Logo_atlas_voyages" data-name="Logo atlas voyages">
    <rect id="Rectangle_541" data-name="Rectangle 541" width="1.669" height="8.633" fill="#f4425c" y="-0.00098" x="23.78802"/>
    <path id="Tracé_442" data-name="Tracé 442" d="m16.61301,5.52701a1.839,1.839 0 0 1 -0.323,0.161a2.745,2.745 0 0 1 -0.448,0.114l-0.38,0.07a2.5,2.5 0 0 0 -0.767,0.228a0.762,0.762 0 0 0 -0.394,0.709a0.741,0.741 0 0 0 0.24,0.618a0.916,0.916 0 0 0 0.586,0.19a1.744,1.744 0 0 0 1.008,-0.316a1.339,1.339 0 0 0 0.478,-1.154l0,-0.62zm-1.02,-0.779a2.637,2.637 0 0 0 0.666,-0.147a0.5,0.5 0 0 0 0.36,-0.474a0.561,0.561 0 0 0 -0.276,-0.542a1.742,1.742 0 0 0 -0.811,-0.15a1.063,1.063 0 0 0 -0.849,0.293a1.207,1.207 0 0 0 -0.237,0.585l-1.61,0a2.439,2.439 0 0 1 0.47,-1.376a2.743,2.743 0 0 1 2.282,-0.843a4.068,4.068 0 0 1 1.87,0.416a1.6,1.6 0 0 1 0.818,1.57l0,2.928q0,0.3 0.012,0.738a0.915,0.915 0 0 0 0.1,0.445a0.592,0.592 0 0 0 0.245,0.193l0,0.246l-1.815,0a1.847,1.847 0 0 1 -0.106,-0.363c-0.02,-0.113 -0.035,-0.242 -0.047,-0.386a3.46,3.46 0 0 1 -0.8,0.638a2.424,2.424 0 0 1 -1.226,0.31a2.113,2.113 0 0 1 -1.44,-0.495a1.759,1.759 0 0 1 -0.569,-1.4a1.819,1.819 0 0 1 0.915,-1.7a4.081,4.081 0 0 1 1.475,-0.41l0.573,-0.076z" fill="#f4425c"/>
    <path id="Tracé_443" data-name="Tracé 443" d="m19.09101,3.49501l0,-1.192l0.89,0l0,-1.78l1.652,0l0,1.78l1.037,0l0,1.189l-1.037,0l0,3.374a0.762,0.762 0 0 0 0.1,0.489a1.1,1.1 0 0 0 0.609,0.1l0.161,0c0.057,0 0.112,0 0.167,-0.009l0,1.248l-0.791,0.029a2.122,2.122 0 0 1 -1.616,-0.41a1.221,1.221 0 0 1 -0.281,-0.885l0,-3.93l-0.891,-0.003z" fill="#f4425c"/>
    <path id="Tracé_444" data-name="Tracé 444" d="m30.64701,5.52701a1.853,1.853 0 0 1 -0.324,0.161a2.754,2.754 0 0 1 -0.448,0.114l-0.38,0.07a2.5,2.5 0 0 0 -0.768,0.228a0.762,0.762 0 0 0 -0.394,0.709a0.741,0.741 0 0 0 0.241,0.618a0.916,0.916 0 0 0 0.586,0.19a1.745,1.745 0 0 0 1.008,-0.316a1.34,1.34 0 0 0 0.479,-1.154l0,-0.62zm-1.021,-0.779a2.629,2.629 0 0 0 0.667,-0.147a0.5,0.5 0 0 0 0.36,-0.474a0.56,0.56 0 0 0 -0.276,-0.542a1.739,1.739 0 0 0 -0.81,-0.15a1.063,1.063 0 0 0 -0.849,0.293a1.2,1.2 0 0 0 -0.237,0.585l-1.611,0a2.442,2.442 0 0 1 0.471,-1.376a2.743,2.743 0 0 1 2.282,-0.843a4.07,4.07 0 0 1 1.87,0.416a1.6,1.6 0 0 1 0.818,1.57l0,2.928q0,0.3 0.012,0.738a0.928,0.928 0 0 0 0.1,0.445a0.6,0.6 0 0 0 0.246,0.193l0,0.246l-1.816,0a1.874,1.874 0 0 1 -0.105,-0.363q-0.03,-0.17 -0.047,-0.386a3.453,3.453 0 0 1 -0.8,0.638a2.422,2.422 0 0 1 -1.225,0.31a2.113,2.113 0 0 1 -1.44,-0.495a1.76,1.76 0 0 1 -0.569,-1.4a1.819,1.819 0 0 1 0.915,-1.7a4.084,4.084 0 0 1 1.475,-0.41l0.569,-0.076z" fill="#f4425c"/>
    <path id="Tracé_445" data-name="Tracé 445" d="m35.07501,6.59401a1.111,1.111 0 0 0 0.229,0.633a1.558,1.558 0 0 0 1.154,0.334a1.762,1.762 0 0 0 0.785,-0.146a0.491,0.491 0 0 0 0.057,-0.867a9.606,9.606 0 0 0 -1.746,-0.5a3.622,3.622 0 0 1 -1.533,-0.674a1.46,1.46 0 0 1 -0.445,-1.148a1.989,1.989 0 0 1 0.7,-1.52a2.8,2.8 0 0 1 1.958,-0.635a3.6,3.6 0 0 1 1.952,0.478a2.044,2.044 0 0 1 0.866,1.648l-1.669,0a0.989,0.989 0 0 0 -0.182,-0.51a1.147,1.147 0 0 0 -0.94,-0.34a1.352,1.352 0 0 0 -0.778,0.17a0.488,0.488 0 0 0 -0.232,0.4a0.435,0.435 0 0 0 0.246,0.416a10.714,10.714 0 0 0 1.743,0.463a3.192,3.192 0 0 1 1.5,0.709a1.608,1.608 0 0 1 0.492,1.2a1.937,1.937 0 0 1 -0.707,1.549a4.251,4.251 0 0 1 -4.413,-0.035a2.065,2.065 0 0 1 -0.719,-1.619l1.682,-0.006z" fill="#f4425c"/>
    <path id="Tracé_446" data-name="Tracé 446" d="m6.65001,12.30602l1.792,0l-2.305,6.384l-1.76,0l-2.289,-6.384l1.874,0l1.329,4.709l1.359,-4.709z" fill="#f4425c"/>
    <path id="Tracé_447" data-name="Tracé 447" d="m13.38901,16.98701a2.979,2.979 0 0 0 0,-2.956a1.483,1.483 0 0 0 -2.252,0a2.959,2.959 0 0 0 0,2.956a1.478,1.478 0 0 0 2.252,0m1.335,0.922a3.517,3.517 0 0 1 -4.908,0a3.962,3.962 0 0 1 0,-4.8a3.481,3.481 0 0 1 4.908,0a3.961,3.961 0 0 1 0,4.8" fill="#f4425c"/>
    <path id="Tracé_448" data-name="Tracé 448" d="m16.99101,19.91402l0.211,0.012a2.637,2.637 0 0 0 0.468,-0.017a0.845,0.845 0 0 0 0.375,-0.135a0.9,0.9 0 0 0 0.273,-0.416a1.007,1.007 0 0 0 0.108,-0.387l-2.346,-6.665l1.856,0l1.394,4.709l1.318,-4.709l1.775,0l-2.189,6.279a8.844,8.844 0 0 1 -1,2.252a1.908,1.908 0 0 1 -1.478,0.437q-0.223,0 -0.358,0t-0.4,-0.02l-0.007,-1.34z" fill="#f4425c"/>
    <path id="Tracé_449" data-name="Tracé 449" d="m26.97201,15.58602a1.85,1.85 0 0 1 -0.324,0.161a2.769,2.769 0 0 1 -0.448,0.114l-0.38,0.07a2.506,2.506 0 0 0 -0.768,0.228a0.763,0.763 0 0 0 -0.394,0.709a0.741,0.741 0 0 0 0.241,0.618a0.916,0.916 0 0 0 0.586,0.19a1.745,1.745 0 0 0 1.008,-0.316a1.34,1.34 0 0 0 0.479,-1.154l0,-0.62zm-1.021,-0.779a2.625,2.625 0 0 0 0.667,-0.147a0.5,0.5 0 0 0 0.36,-0.474a0.56,0.56 0 0 0 -0.276,-0.541a1.739,1.739 0 0 0 -0.81,-0.15a1.063,1.063 0 0 0 -0.849,0.293a1.2,1.2 0 0 0 -0.237,0.585l-1.611,0a2.442,2.442 0 0 1 0.471,-1.376a2.743,2.743 0 0 1 2.282,-0.843a4.071,4.071 0 0 1 1.871,0.416a1.6,1.6 0 0 1 0.817,1.57l0,2.928q0,0.3 0.012,0.738a0.923,0.923 0 0 0 0.1,0.445a0.6,0.6 0 0 0 0.246,0.193l0,0.246l-1.816,0a1.871,1.871 0 0 1 -0.105,-0.363c-0.02,-0.113 -0.035,-0.242 -0.047,-0.386a3.451,3.451 0 0 1 -0.8,0.638a2.423,2.423 0 0 1 -1.225,0.31a2.114,2.114 0 0 1 -1.44,-0.495a1.759,1.759 0 0 1 -0.568,-1.4a1.818,1.818 0 0 1 0.914,-1.7a4.081,4.081 0 0 1 1.475,-0.41l0.569,-0.077z" fill="#f4425c"/>
    <path id="Tracé_450" data-name="Tracé 450" d="m33.83202,16.87702a2.053,2.053 0 0 0 0.4,-1.408a2.161,2.161 0 0 0 -0.382,-1.382a1.245,1.245 0 0 0 -1.023,-0.474a1.206,1.206 0 0 0 -1.207,0.826a2.939,2.939 0 0 0 -0.175,1.084a2.487,2.487 0 0 0 0.186,0.99a1.217,1.217 0 0 0 1.214,0.808a1.282,1.282 0 0 0 0.986,-0.442m-0.569,-4.577a2,2 0 0 1 0.983,0.925l0,-0.92l1.628,0l0,6.056a3.4,3.4 0 0 1 -0.416,1.862a3.061,3.061 0 0 1 -2.741,1.078a3.732,3.732 0 0 1 -2,-0.48a1.771,1.771 0 0 1 -0.855,-1.435l1.816,0a0.751,0.751 0 0 0 0.229,0.421a1.41,1.41 0 0 0 0.908,0.229a1.22,1.22 0 0 0 1.207,-0.6a3.059,3.059 0 0 0 0.2,-1.3l0,-0.41a2.031,2.031 0 0 1 -0.515,0.615a2.073,2.073 0 0 1 -1.294,0.381a2.449,2.449 0 0 1 -1.965,-0.864a3.493,3.493 0 0 1 -0.735,-2.34a3.949,3.949 0 0 1 0.708,-2.393a2.338,2.338 0 0 1 2.006,-0.969a2.192,2.192 0 0 1 0.836,0.147" fill="#f4425c"/>
    <path id="Tracé_451" data-name="Tracé 451" d="m39.11202,13.87701a1.726,1.726 0 0 0 -0.445,0.988l2.876,0a1.394,1.394 0 0 0 -0.445,-1.009a1.461,1.461 0 0 0 -0.99,-0.344a1.321,1.321 0 0 0 -1,0.365m2.5,-1.442a2.6,2.6 0 0 1 1.1,0.944a3.148,3.148 0 0 1 0.509,1.32a8.209,8.209 0 0 1 0.054,1.267l-4.65,0a1.532,1.532 0 0 0 0.667,1.347a1.7,1.7 0 0 0 0.92,0.24a1.3,1.3 0 0 0 1.271,-0.732l1.7,0a2.086,2.086 0 0 1 -0.619,1.154a3.1,3.1 0 0 1 -2.4,0.931a3.481,3.481 0 0 1 -2.249,-0.785a3.094,3.094 0 0 1 -0.975,-2.556a3.457,3.457 0 0 1 0.88,-2.544a3.079,3.079 0 0 1 2.283,-0.885a3.635,3.635 0 0 1 1.5,0.3" fill="#f4425c"/>
    <path id="Tracé_452" data-name="Tracé 452" d="m45.42201,16.65101a1.111,1.111 0 0 0 0.229,0.633a1.558,1.558 0 0 0 1.154,0.334a1.763,1.763 0 0 0 0.785,-0.146a0.491,0.491 0 0 0 0.057,-0.867a9.614,9.614 0 0 0 -1.746,-0.5a3.621,3.621 0 0 1 -1.533,-0.674a1.46,1.46 0 0 1 -0.445,-1.148a1.988,1.988 0 0 1 0.7,-1.519a2.8,2.8 0 0 1 1.958,-0.636a3.6,3.6 0 0 1 1.952,0.477a2.044,2.044 0 0 1 0.866,1.649l-1.669,0a0.986,0.986 0 0 0 -0.182,-0.51a1.147,1.147 0 0 0 -0.939,-0.34a1.354,1.354 0 0 0 -0.779,0.17a0.488,0.488 0 0 0 -0.232,0.4a0.435,0.435 0 0 0 0.246,0.416a10.7,10.7 0 0 0 1.743,0.463a3.191,3.191 0 0 1 1.5,0.709a1.608,1.608 0 0 1 0.492,1.2a1.938,1.938 0 0 1 -0.707,1.549a4.251,4.251 0 0 1 -4.413,-0.035a2.065,2.065 0 0 1 -0.719,-1.62l1.682,-0.005z" fill="#f4425c"/>
    <path id="Tracé_453" data-name="Tracé 453" d="m25.83301,50.13001a25.828,25.828 0 0 0 25.828,-25.828l-51.661,0a25.828,25.828 0 0 0 25.833,25.828" fill="#f4425c"/>
   </g>
  </g>
 </g>

</svg>